<?xml version="1.0" encoding="utf-8"?>
<!-- Generator: Adobe Illustrator 17.1.0, SVG Export Plug-In . SVG Version: 6.00 Build 0)  -->
<!DOCTYPE svg PUBLIC "-//W3C//DTD SVG 1.1//EN" "http://www.w3.org/Graphics/SVG/1.1/DTD/svg11.dtd">
<svg version="1.1" xmlns="http://www.w3.org/2000/svg" xmlns:xlink="http://www.w3.org/1999/xlink" x="0px" y="0px"
	 viewBox="0 0 200 34" enable-background="new 0 0 200 34" xml:space="preserve">
<g id="option_1" display="none">
</g>
<g id="option_2" display="none">
</g>
<g id="option_2_copy" display="none">
</g>
<g id="vr_profile" display="none">
</g>
<g id="re_profile" display="none">
</g>
<g id="blog_post" display="none">
</g>
<g id="daily_surf_report_2" display="none">
</g>
<g id="daily_surf_report_1_" display="none">
</g>
<g id="monthly_surf_report" display="none">
</g>
<g id="surf_forecast" display="none">
</g>
<g id="hotel" display="none">
</g>
<g id="hotel_results" display="none">
</g>
<g id="restaurant" display="none">
</g>
<g id="resto_results" display="none">
</g>
<g id="search_results" display="none">
</g>
<g id="search_results_copy">
</g>
<g id="header" display="none">
</g>
<g id="header_copy">
	<g>
		<path fill="#000" d="M60.8,15.4v-1.3c-1-0.2-1.9-0.2-2.5-0.2c-1.7,0-2,0.9-2,1.2c0,0.6,0.4,1.1,2.2,1.5
			c2.3,0.5,4.7,1.1,4.7,3.6c0,2.4-1.7,3.6-4.4,3.6c-1.8,0-3.7-0.2-5.1-0.5v-3h2.1v1.3c1.1,0.2,2.1,0.2,2.7,0.2c1.8,0,2.2-1,2.2-1.4
			c0-0.7-0.6-1.1-2.3-1.4c-2.5-0.5-4.6-1.3-4.6-3.8c0-2.3,1.7-3.3,4.4-3.3c1.8,0,3.3,0.2,4.7,0.5v3H60.8z"/>
		<path fill="#000" d="M64.4,12.1h4v7.3c0,1.4,0.6,2.3,2.1,2.3c1.1,0,2.2-0.7,2.8-1.1v-6.4h-1.7v-2.1h4.2v9.4h1.4v2.1h-3.9V22h0
			c-1,1.1-2.4,1.8-3.9,1.8c-2.3,0-3.4-1.4-3.4-3.8v-5.8h-1.4V12.1z"/>
		<path fill="#000" d="M78,12.1h4v1.8h0c0.8-1,2.3-2.1,4.1-2.1v2.4c-1.6,0-3.3,0.6-4.2,1.1v6.1h1.6v2.1H78v-2.1h1.4v-7.3H78V12.1
			z"/>
		<path fill="#000" d="M99.6,21.5v2.1h-5.2v-2.1h1.3v-7.6h-4.3v7.6h1.4v2.1h-5.4v-2.1h1.4v-7.6h-1.7v-1.7l1.7-0.2v-0.6
			c0-2.5,1.2-4,4.6-4c1,0,3.1,0.3,4.2,0.7L97.4,10c-1-0.3-2.6-0.5-3.7-0.5c-1.9,0-2.3,0.8-2.3,2v0.6h6.9v9.4H99.6z"/>
		<path fill="#000" d="M108,21.5h1.3v-5.2c0-1.4-0.6-2.3-2.1-2.3c-1.1,0-2.2,0.7-2.8,1.1v6.4h1.3v2.1h-5.2v-2.1h1.4v-7.3h-1.4
			v-2.1h4v1.6h0c1-1.1,2.4-1.8,3.9-1.8c2.3,0,3.4,1.4,3.4,3.8v5.8h1.4v2.1H108V21.5z"/>
		<path fill="#000" d="M115.6,22.9c-1.4-0.9-1.1-2.8,0.8-3.9v0c-1.2-0.6-1.9-1.7-1.9-3.2c0-2.6,1.9-3.9,4.8-3.9
			c0.6,0,1.2,0.1,1.6,0.2h4.1v1.5h-2v0c0.7,0.5,0.9,1.3,0.9,2.1c0,2.6-2,3.8-4.6,3.8c-0.4,0-1.1-0.1-1.6-0.2
			c-0.7,0.8-0.8,1.8,0.2,1.9l3.9,0.2c2.4,0.1,3.5,1.2,3.5,2.9c0,2.7-2.1,4.1-6.7,4.1c-3.2,0-4.8-0.9-4.8-3
			C113.7,24.4,114.3,23.6,115.6,22.9L115.6,22.9z M119,26.6c1.9,0,3.6-0.5,3.6-1.9c0-0.6-0.4-1.1-1.7-1.2l-4-0.2
			c-0.6,0.5-1.1,0.9-1.1,1.7C115.9,26.2,117.1,26.6,119,26.6z M121.5,15.7c0-1.4-0.9-2.2-2.3-2.2c-1.5,0-2.3,0.7-2.3,2.2
			s0.9,2.1,2.3,2.1C120.6,17.8,121.5,17.1,121.5,15.7z"/>
		<path fill="#000" d="M138,21.5h1.3v-5.2c0-1.4-0.6-2.3-2.1-2.3c-1.1,0-2.2,0.7-2.8,1.1v6.4h1.3v2.1h-5.2v-2.1h1.4v-7.3h-1.4
			v-2.1h4v1.6h0c1-1.1,2.4-1.8,3.9-1.8c2.3,0,3.4,1.4,3.4,3.8v5.8h1.4v2.1H138V21.5z"/>
		<path fill="#000" d="M144,17.8c0-3.6,1.5-6,5.4-6s5.4,2.4,5.4,6c0,3.6-1.5,6-5.4,6S144,21.4,144,17.8z M146.7,17.8
			c0,2.3,0.6,3.9,2.8,3.9s2.8-1.6,2.8-3.9c0-2.3-0.6-3.9-2.8-3.9S146.7,15.5,146.7,17.8z"/>
		<path fill="#000" d="M163.4,15.4v-1.3c-1-0.2-1.9-0.2-2.5-0.2c-1.7,0-2,0.9-2,1.2c0,0.6,0.4,1.1,2.2,1.5
			c2.3,0.5,4.7,1.1,4.7,3.6c0,2.4-1.7,3.6-4.4,3.6c-1.8,0-3.7-0.2-5.1-0.5v-3h2.1v1.3c1.1,0.2,2.1,0.2,2.7,0.2c1.8,0,2.2-1,2.2-1.4
			c0-0.7-0.6-1.1-2.3-1.4c-2.5-0.5-4.6-1.3-4.6-3.8c0-2.3,1.7-3.3,4.4-3.3c1.8,0,3.3,0.2,4.7,0.5v3H163.4z"/>
		<path fill="#000" d="M167.4,20.3c0-2.8,2.5-3.5,4.9-3.5h2.3v-1c0-1.4-0.7-1.9-2.4-1.9c-0.5,0-1.1,0-1.9,0.2v1.3h-2.1v-3
			c1.6-0.3,3.2-0.5,4.6-0.5c2.9,0,4.4,0.8,4.4,3.8v5.8h1.4v2.1h-3.9v-1.1h0c-0.9,0.8-2,1.4-3.5,1.4
			C168.7,23.8,167.4,22.3,167.4,20.3z M174.6,18.3h-2c-1.8,0-2.7,0.5-2.7,1.8c0,1.1,0.9,1.7,2.1,1.7c1.1,0,2.1-0.5,2.6-0.9V18.3z"/>
		<path fill="#000" d="M179.3,12.1h4v1.8h0c0.8-1,2.3-2.1,4.1-2.1v2.4c-1.6,0-3.3,0.6-4.2,1.1v6.1h1.6v2.1h-5.5v-2.1h1.4v-7.3
			h-1.4V12.1z"/>
		<path fill="#000" d="M188.1,20.3c0-2.8,2.5-3.5,4.9-3.5h2.3v-1c0-1.4-0.7-1.9-2.4-1.9c-0.5,0-1.1,0-1.9,0.2v1.3h-2.1v-3
			c1.6-0.3,3.2-0.5,4.6-0.5c2.9,0,4.4,0.8,4.4,3.8v5.8h1.4v2.1h-3.9v-1.1h0c-0.9,0.8-2,1.4-3.5,1.4
			C189.4,23.8,188.1,22.3,188.1,20.3z M195.3,18.3h-2c-1.8,0-2.7,0.5-2.7,1.8c0,1.1,0.9,1.7,2.1,1.7c1.1,0,2.1-0.5,2.6-0.9V18.3z"/>
	</g>
	<g>
		<path fill="#000" d="M26.9,14.8c-0.9,0.2-0.4-1-1.1-1.1c-0.9,0.9-0.1,1.4,0.5,2.2C26.4,15.3,27.1,15.5,26.9,14.8z"/>
		<path fill="#000" d="M20.7,0.6C9.8,0.6,1,9.4,1,20.4c0,5,1.9,9.6,4.9,13c2.5-1.2,5.8-2.1,9.6-2.6c-0.6-2.8-1-5.4-0.1-7.9
			c0-0.1-0.1-0.5,0-0.5c0.2-0.2,0.3-0.7,0.5-1.4c0.1-0.1,0.3,0,0.3-0.3c0-0.4,0.5-0.6,0.5-1.1c0-0.4,0.4-0.3,0.5-0.5
			c0.1-0.1-0.1-0.5,0-0.5c0.3-0.2,0.3-0.3,0.5-0.5c0.4-0.6,1.3-1.1,1.1-1.9c-1.4,0.4-2.2,1.5-3.5,1.9c-0.5,0-0.2-0.9-0.8-0.8
			c-0.1,0.4,0.3,1.4-0.3,1.4c-3.3,0.2-4.9,2-6.8,3.5c0-0.1,0-0.2,0-0.3c0.7,0.1,0.2-1.1,0.5-1.4c0,0,0.3,0,0.3,0
			c0-0.1-0.1-0.5,0-0.5c0,0,0.3,0,0.3,0c0-0.1-0.1-0.5,0-0.5c0,0,0.2,0,0.3,0c0.2-0.3,0.3-0.8,0.5-1.1c0.2-0.3,0.5-0.5,0.8-0.8
			c0.6-0.7,1.3-1.6,2.2-2.2c0.2-0.1,0-0.3,0.3-0.3c0.3,0,0.3-0.4,0.5-0.5c0.1-0.1,0.5,0.1,0.5,0c0.5-0.7,0.9,0.5,1.1,0.3
			c0.4-0.5,0.3-0.7,1.4-0.8c1.5-0.1,3.4,0.1,5.2,0.5c0.6-2.6,2.7-4.1,5.2-5.2c0.2-0.1,0.3,0,0.3-0.3c0.1,0,0.2,0,0.3,0
			c0,0.5-0.3,0.6-0.3,1.1c0.2,0.6,0.8-0.6,1.4-0.5c0.9,0.8,1.6,1.6,2.2,2.7c0.5,1.1,0.8,2.3,1.1,3.5c0,0.4-0.1,1,0.3,1.1
			c0,1.2,0,2.4,0,3.5c-0.9,0-0.6-1.1-0.8-1.6c-0.1-0.2-0.5-0.4-0.5-0.5c-0.2-0.3-0.1-0.5-0.3-0.8c-0.1-0.2-0.3,0-0.3-0.3
			c0-0.2-0.5-0.8-0.8-1.1c-0.3-0.3-0.8-0.8-1.4-0.8c-0.5,0.5-0.5,1.3-1.1,1.6c0.7,1.2,0.2,2.1,0.3,3.8c-0.2-0.2-0.5-0.3-0.5,0
			c-0.7,0.1-0.3-0.3-0.3-0.3c-0.1-0.3-0.5-1.3-0.3-2.5c0.2-0.9-0.7-0.6-0.8-1.1c0.5-1.4-0.2-2.5-1.1-3.3c-0.4,0.1-0.7,0.4-1.1,0.5
			c0.2,0.3,0.5,0.4,0.8,0.5c-0.1,0.4,0.3,0.5,0.3,0.8c0.1,0.9-0.7,0.7-0.8,1.4c0.6,0.6,1.4,2.6,0,3c0,0.7,1,0.4,1.4,0.8
			c-1,2.5-1.1,5.6-0.5,8.4c-0.3-0.1-0.4-0.3-0.5-0.5c-0.1-0.2-0.4-0.4-0.5-0.5c-0.3-0.4-0.3-0.9-0.5-1.4c-0.1-0.2-0.5-0.4-0.5-0.5
			c-0.1-0.1,0.1-0.5,0-0.5c-0.2-0.2-0.2-0.2-0.3-0.5c0,0-0.2-0.8-0.3-0.8c-0.1-0.1-0.3-0.5-0.5-1.4c-0.1-0.5,0-0.5-0.3-0.8
			c-0.1-0.1,0-1.4,0.5-1.6c0-0.3-0.5-0.2-0.8-0.3c0.3-1.1,1.1-1.6,1.1-3c-0.1-0.7-0.5,0.4-1.1,0c-0.4,0.3-0.6,0.8-0.8,1.4
			c-0.1,0.1-0.2,0-0.3,0.3c0,0.2,0.1,0.4,0,0.5c-0.1,0.2-0.5,0.4-0.5,0.5c-0.2,0.5-0.1,1.3-0.3,1.9c0,0-0.2,0.1-0.3,0.3
			c0,0.2,0,0.4,0,0.5c-0.3,1.2-0.3,3.5,0.3,4.9c0,0.1-0.1,0.5,0,0.5c0.1,0.1,1.1,1.8,1.1,2.2c0,0.1,0,0.2,0.1,0.3c0.5,0,0.9,0,1.4,0
			c5.9,0,11.2,1.1,14.8,2.9c3.1-3.5,4.9-8,4.9-13C40.5,9.4,31.7,0.6,20.7,0.6z"/>
	</g>
</g>
<g id="grid_-_6" display="none">
	<rect x="-151" y="-62.7" display="inline" opacity="0.29" fill="#FF7BAC" width="245" height="2786"/>
	<rect x="124" y="-62.7" display="inline" opacity="0.29" fill="#FF7BAC" width="245" height="2786"/>
</g>
<g id="guides" display="none">
</g>
</svg>
